# xmcd
#
# Track frame offsets: 
#        150
#        18686
#        42856
#        60614
#        83558
#        98761
#        119811
#        137681
#        157312
#        185066
#        205875
#        226228
#        246093
#        266701
#        282848
#        311079
#
# Disc length: 4156 seconds
#
# Revision: 0
# Processed by: cddbd v1.5.2PL0 Copyright (c) Steve Scherf et al.
# Submitted via: ExactAudioCopy v0.95b4
#
DISCID=eb103a10
DTITLE=Various Artist - SC7514s
DYEAR=2006
DGENRE=Karaoke
TTITLE0=Marcia Griffiths - Electric Boogie (Electric Slide)
TTITLE1=Luther Vandross - Here and Now
TTITLE2=Boyz II Men - I'll Make Love to You
TTITLE3=Alannah Myles - Black Velvet
TTITLE4=Ace of Base - The Sign
TTITLE5=K. D. Lang - Constant Craving
TTITLE6=Michael Jackson - Rock With You
TTITLE7=Bryan Adams - (Everything I Do) I Do It for You
TTITLE8=Celine Dion - The Power of Love
TTITLE9=Sarah McLachlan - Angel
TTITLE10=Mariah Carey - Hero
TTITLE11=Mariah Carey and Trey Lorenz - I'll Be There
TTITLE12=Sir Mix-A-Lot - Baby Got Back
TTITLE13=Beastie Boys - Fight for Your Right
TTITLE14=Bonnie Raitt - Something to Talk About
TTITLE15=Data /Data Track
EXTD=
EXTT0=
EXTT1=
EXTT2=
EXTT3=
EXTT4=
EXTT5=
EXTT6=
EXTT7=
EXTT8=
EXTT9=
EXTT10=
EXTT11=
EXTT12=
EXTT13=
EXTT14=
EXTT15=
PLAYORDER=
